<svg aria-hidden="true" style="position:absolute;width:0;height:0;overflow:hidden" xmlns="http://www.w3.org/2000/svg">
  <defs>
    <symbol id="icon-logo" viewBox="0 0 36 32">
      <path fill="#02bc6b" style="fill:var(--color1, #02bc6b)" d="M2.785 30.323C1.253 30.323 0 29.082 0 27.566v-9.639h7.01v-.011h4.213c1.086-.028 2.005-.965 2.005-2.068 0-1.13-.947-2.068-2.089-2.068l-11.14.002v-2.759c0-1.516 1.253-2.757 2.785-2.757h8.355c2.117 0 3.927.744 5.403 2.233 1.504 1.461 2.256 3.253 2.256 5.349 0 2.068-.724 3.86-2.2 5.321s-3.258 2.233-5.347 2.261H5.57v4.136c0 1.516-1.253 2.757-2.785 2.757z"/>
      <path fill="#02897a" style="fill:var(--color2, #02897a)" d="M22.309 5.067c3.077 2.959 4.627 6.644 4.627 10.832 0 4.118-1.486 7.8-4.515 10.768l-4.301-4.006c1.884-1.846 2.809-4.068 2.809-6.761 0-2.714-.953-4.933-2.882-6.788l4.262-4.044z"/>
      <path fill="#035b81" style="fill:var(--color3, #035b81)" d="M28.894 0c4.432 4.38 6.662 9.812 6.662 16.046 0 6.136-2.14 11.564-6.499 15.954l-4.151-4.015c3.247-3.27 4.838-7.236 4.838-11.939 0-4.75-1.645-8.713-4.962-11.992L28.895.001z"/>
      <path fill="#028e37" style="fill:var(--color4, #028e37)" d="M0 23.454h5.57v4.113c0 1.516-1.253 2.757-2.785 2.757S0 29.083 0 27.567v-4.113z"/>
    </symbol>
    <symbol id="icon-menu" viewBox="0 0 20 20">
      <path d="M0 3h20v2H0V3zm0 6h20v2H0V9zm0 6h20v2H0v-2z"/>
    </symbol>
    <symbol id="icon-play" viewBox="0 0 27 32">
      <path d="M25.976 14.68c1.205.692 1.205 2.43 0 3.122L3.516 30.694c-1.2.689-2.696-.178-2.696-1.561V3.35c0-1.384 1.496-2.25 2.696-1.561l22.46 12.891z"/>
    </symbol>
    <symbol id="icon-clock" viewBox="0 0 26 32">
      <path fill="#fff" style="fill:var(--color1, #fff)" d="M23.664 2.628h1.614a.531.531 0 0 0 .538-.538V1.014a.53.53 0 0 0-.538-.538H.538A.53.53 0 0 0 0 1.014V2.09a.53.53 0 0 0 .538.538h1.613c0 6.218 2.975 10.723 6.269 12.908-3.294 2.185-6.269 6.689-6.269 12.908H.538a.53.53 0 0 0-.538.538v1.076c0 .302.235.538.538.538h24.74a.531.531 0 0 0 .538-.538v-1.076a.531.531 0 0 0-.538-.538h-1.614c0-6.218-2.975-10.723-6.269-12.908 3.294-2.185 6.269-6.689 6.269-12.908zm-2.151 0c0 2.454-.555 4.622-1.429 6.454H5.731c-.874-1.832-1.429-4-1.429-6.454h17.21zm-.958 20.437H5.261c1.244-3.244 3.479-5.546 5.714-6.454h3.866c2.235.908 4.471 3.21 5.714 6.454z"/>
    </symbol>
    <symbol id="icon-heart" viewBox="0 0 34 32">
      <path fill="#fff" style="fill:var(--color1, #fff)" d="M17.067 30.103c.305 0 .61-.114.838-.343l11.867-11.429c.171-.171 4.362-4 4.362-8.571 0-5.581-3.41-8.914-9.105-8.914-3.333 0-6.457 2.629-7.962 4.114C15.562 3.474 12.438.846 9.105.846 3.41.846 0 4.179 0 9.76c0 4.571 4.191 8.4 4.343 8.533L16.229 29.76c.229.229.533.343.838.343z"/>
    </symbol>
    <symbol id="icon-design" viewBox="0 0 41 32">
      <path fill="#fff" style="fill:var(--color1, #fff)" d="m21.673 12.824 2.674 1.245 3.98-1.184v-2.776c0-4.714-3.98-8.49-8.735-8.49-4.735 0-8.735 3.755-8.735 8.429v12.653c0 1.163-.939 2.082-2.082 2.082s-2.082-.918-2.082-2.082v-5.347H-.001v5.429a8.753 8.753 0 0 0 8.755 8.755c4.796 0 8.755-3.857 8.755-8.633v-12.49c0-1.143.939-2.082 2.082-2.082s2.082.939 2.082 2.082v2.408zm10.817 4.531v5.612c0 1.143-.939 2.061-2.082 2.061s-2.082-.918-2.082-2.061v-5.51l-3.98 1.184-2.674-1.245v5.469c0 4.796 3.939 8.673 8.755 8.673a8.753 8.753 0 0 0 8.755-8.755v-5.429h-6.694z"/>
    </symbol>
    <symbol id="icon-cursor" viewBox="0 0 21 32">
      <path fill="#fff" style="fill:var(--color1, #fff)" d="M19.042 18.007 1.832.797a1.003 1.003 0 0 0-.756-.319C.942.478.79.512.673.562a1.079 1.079 0 0 0-.672.992v25.277c0 .437.269.824.672.992.118.05.269.084.403.084.286 0 .555-.118.756-.319l5.244-5.244 3.21 7.597a1.08 1.08 0 0 0 1.412.571l2.975-1.26a1.08 1.08 0 0 0 .571-1.412l-3.378-8h6.42c.437 0 .824-.269.992-.672a1.038 1.038 0 0 0-.235-1.16z"/>
    </symbol>
    <symbol id="icon-blue-checked" viewBox="0 0 31 32">
      <path fill="#4d8dff" style="fill:var(--color1, #4d8dff)" d="M12.315 1.82h6.482c6.085 0 11.018 4.933 11.018 11.018v6.481c0 6.085-4.933 11.018-11.018 11.018h-6.482c-6.085 0-11.018-4.933-11.018-11.018v-6.482c0-6.085 4.933-11.018 11.018-11.018z"/>
      <path fill="none" stroke="#fff" style="stroke:var(--color2, #fff)" stroke-width="2.593" d="M12.315 1.82h6.482c6.085 0 11.018 4.933 11.018 11.018v6.481c0 6.085-4.933 11.018-11.018 11.018h-6.482c-6.085 0-11.018-4.933-11.018-11.018v-6.482c0-6.085 4.933-11.018 11.018-11.018z"/>
      <path fill="none" stroke="#4d8dff" style="stroke:var(--color1, #4d8dff)" stroke-width="2.593" d="M12.315 1.82h6.482c6.085 0 11.018 4.933 11.018 11.018v6.481c0 6.085-4.933 11.018-11.018 11.018h-6.482c-6.085 0-11.018-4.933-11.018-11.018v-6.482c0-6.085 4.933-11.018 11.018-11.018z"/>
      <path fill="#fff" style="fill:var(--color2, #fff)" d="M22.903 11.403a.7.7 0 0 0-1.006 0l-8.52 8.701-3.275-3.344c-.278-.284-.728-.284-1.006 0s-.278.743 0 1.027l3.778 3.858a.701.701 0 0 0 1.006 0l9.022-9.214a.737.737 0 0 0 0-1.027z"/>
    </symbol>
    <symbol id="icon-red-checked" viewBox="0 0 31 32">
      <path fill="#f03e3d" style="fill:var(--color3, #f03e3d)" d="M12.315 1.82h6.482c6.085 0 11.018 4.933 11.018 11.018v6.481c0 6.085-4.933 11.018-11.018 11.018h-6.482c-6.085 0-11.018-4.933-11.018-11.018v-6.482c0-6.085 4.933-11.018 11.018-11.018z"/>
      <path fill="none" stroke="#fff" style="stroke:var(--color2, #fff)" stroke-width="2.593" d="M12.315 1.82h6.482c6.085 0 11.018 4.933 11.018 11.018v6.481c0 6.085-4.933 11.018-11.018 11.018h-6.482c-6.085 0-11.018-4.933-11.018-11.018v-6.482c0-6.085 4.933-11.018 11.018-11.018z"/>
      <path fill="none" stroke="#f03e3d" style="stroke:var(--color3, #f03e3d)" stroke-width="2.593" d="M12.315 1.82h6.482c6.085 0 11.018 4.933 11.018 11.018v6.481c0 6.085-4.933 11.018-11.018 11.018h-6.482c-6.085 0-11.018-4.933-11.018-11.018v-6.482c0-6.085 4.933-11.018 11.018-11.018z"/>
      <path fill="#fff" style="fill:var(--color2, #fff)" d="M22.903 11.403a.7.7 0 0 0-1.006 0l-8.52 8.701-3.275-3.344c-.278-.284-.728-.284-1.006 0s-.278.743 0 1.027l3.778 3.858a.701.701 0 0 0 1.006 0l9.022-9.214a.737.737 0 0 0 0-1.027z"/>
    </symbol>
    <symbol id="icon-orange-checked" viewBox="0 0 31 32">
      <path fill="#f90" style="fill:var(--color4, #f90)" d="M12.315 1.612h6.482c6.085 0 11.018 4.933 11.018 11.018v6.482c0 6.085-4.933 11.018-11.018 11.018h-6.482c-6.085 0-11.018-4.933-11.018-11.018V12.63c0-6.085 4.933-11.018 11.018-11.018z"/>
      <path fill="none" stroke="#fff" style="stroke:var(--color2, #fff)" stroke-width="2.593" d="M12.315 1.612h6.482c6.085 0 11.018 4.933 11.018 11.018v6.482c0 6.085-4.933 11.018-11.018 11.018h-6.482c-6.085 0-11.018-4.933-11.018-11.018V12.63c0-6.085 4.933-11.018 11.018-11.018z"/>
      <path fill="none" stroke="#f90" style="stroke:var(--color4, #f90)" stroke-width="2.593" d="M12.315 1.612h6.482c6.085 0 11.018 4.933 11.018 11.018v6.482c0 6.085-4.933 11.018-11.018 11.018h-6.482c-6.085 0-11.018-4.933-11.018-11.018V12.63c0-6.085 4.933-11.018 11.018-11.018z"/>
      <path fill="#fff" style="fill:var(--color2, #fff)" d="M22.903 11.195a.7.7 0 0 0-1.006 0l-8.52 8.701-3.275-3.344c-.278-.284-.728-.284-1.006 0s-.278.743 0 1.027l3.778 3.858a.701.701 0 0 0 1.006 0l9.022-9.214a.737.737 0 0 0 0-1.027z"/>
    </symbol>
    <symbol id="icon-drk-mode-btn" viewBox="0 0 32 32">
      <path fill="#f3f3f3" style="fill:var(--color1, #f3f3f3)" d="M16 0c8.837 0 16 7.163 16 16s-7.163 16-16 16S0 24.837 0 16 7.163 0 16 0z"/>
      <path fill="#02897a" style="fill:var(--color2, #02897a)" d="M16 26c5.514 0 10-4.486 10-10S21.514 6 16 6 6 10.486 6 16s4.486 10 10 10zm0-18c4.411 0 8 3.589 8 8s-3.589 8-8 8-8-3.589-8-8 3.589-8 8-8z"/>
      <path fill="#02897a" style="fill:var(--color2, #02897a)" d="M23 16a7 7 0 0 0-7-7v14a7 7 0 0 0 7-7z"/>
    </symbol>
    <symbol id="icon-review-stars" viewBox="0 0 180 32">
      <path fill="#f3cd03" style="fill:var(--color1, #f3cd03)" d="M30.814 11.093a1.55 1.55 0 0 0-1.341-1.044l-8.807-.7L16.855.913a1.54 1.54 0 0 0-2.814 0L10.23 9.351l-8.807.7a1.542 1.542 0 0 0-1.331 1.015 1.548 1.548 0 0 0 .374 1.632l6.508 6.345-2.302 9.967a1.541 1.541 0 0 0 .627 1.619c.255.176.557.271.866.274s.613-.088.87-.261l8.412-5.608 8.412 5.608a1.542 1.542 0 0 0 1.766-.038 1.547 1.547 0 0 0 .577-1.669l-2.825-9.887 7.007-6.306c.459-.414.627-1.06.429-1.645zM67.891 11.093a1.55 1.55 0 0 0-1.341-1.044l-8.807-.7L53.932.913a1.54 1.54 0 0 0-2.814 0l-3.811 8.438-8.807.7a1.542 1.542 0 0 0-1.331 1.015 1.548 1.548 0 0 0 .374 1.632l6.508 6.345-2.302 9.967a1.55 1.55 0 0 0 .627 1.619c.255.176.557.271.866.274s.613-.088.87-.261l8.411-5.608 8.412 5.608a1.542 1.542 0 0 0 1.766-.038 1.545 1.545 0 0 0 .578-1.669l-2.825-9.887 7.007-6.306c.459-.414.627-1.06.429-1.645zM104.962 11.093a1.55 1.55 0 0 0-1.341-1.044l-8.807-.7L91.003.913a1.54 1.54 0 0 0-2.814 0l-3.811 8.438-8.807.7a1.542 1.542 0 0 0-1.331 1.015 1.548 1.548 0 0 0 .374 1.632l6.508 6.345-2.302 9.967a1.55 1.55 0 0 0 .627 1.619c.255.176.557.271.866.274s.613-.088.87-.261l8.412-5.608 8.411 5.608a1.542 1.542 0 0 0 1.766-.038 1.547 1.547 0 0 0 .577-1.669l-2.826-9.887 7.007-6.306c.459-.414.627-1.06.429-1.645zM142.041 11.093a1.55 1.55 0 0 0-1.341-1.044l-8.807-.7-3.811-8.436a1.54 1.54 0 0 0-2.814 0l-3.811 8.438-8.807.7a1.542 1.542 0 0 0-1.331 1.015 1.548 1.548 0 0 0 .374 1.632l6.508 6.345-2.302 9.967a1.55 1.55 0 0 0 .627 1.619c.255.176.557.271.866.274s.613-.088.87-.261l8.412-5.608 8.411 5.608a1.542 1.542 0 0 0 1.766-.038 1.545 1.545 0 0 0 .578-1.669l-2.826-9.887 7.007-6.306c.459-.414.627-1.06.429-1.645zM155.28 19.039l-2.302 9.967a1.548 1.548 0 0 0 .623 1.623 1.545 1.545 0 0 0 1.739.011l8.412-5.608 8.411 5.608a1.545 1.545 0 0 0 2.317-.783c.103-.299.113-.621.027-.925l-2.826-9.887 7.008-6.306a1.545 1.545 0 0 0-.913-2.688l-8.807-.701-3.811-8.436a1.542 1.542 0 0 0-2.816 0l-3.811 8.436-8.807.7a1.542 1.542 0 0 0-1.331 1.015 1.548 1.548 0 0 0 .374 1.632l6.51 6.345zm4.408-6.683a1.538 1.538 0 0 0 1.286-.906l2.779-6.15 2.779 6.15a1.55 1.55 0 0 0 1.286.906l6.136.487-5.053 4.548a1.55 1.55 0 0 0-.453 1.573l1.937 6.774-5.772-3.848a1.538 1.538 0 0 0-1.714 0l-6.031 4.021 1.622-7.023a1.539 1.539 0 0 0-.426-1.452l-4.693-4.576 6.318-.504z"/>
    </symbol>
    <symbol id="icon-facebook" viewBox="0 0 32 32">
      <path stroke-linejoin="round" stroke-linecap="round" stroke-width="2.667" d="M24 2.667h-4a6.67 6.67 0 0 0-6.667 6.667v4h-4v5.333h4v10.667h5.333V18.667h4l1.333-5.333h-5.333v-4A1.334 1.334 0 0 1 20 8h4V2.667z"/>
    </symbol>
    <symbol id="icon-instagram" viewBox="0 0 31 32">
      <path stroke-linejoin="round" stroke-linecap="round" stroke-width="2.56" d="M21.76 2.58H8.96a6.4 6.4 0 0 0-6.4 6.4v12.8a6.4 6.4 0 0 0 6.4 6.4h12.8a6.4 6.4 0 0 0 6.4-6.4V8.98a6.4 6.4 0 0 0-6.4-6.4z"/>
      <path stroke-linejoin="round" stroke-linecap="round" stroke-width="2.56" d="M20.48 14.574a5.12 5.12 0 1 1-10.127 1.504 5.12 5.12 0 0 1 10.126-1.505zM22.4 8.34h.013"/>
    </symbol>
    <symbol id="icon-twitter" viewBox="0 0 38 32">
      <path stroke-linejoin="round" stroke-linecap="round" stroke-width="3.2" d="M36.8 1.616a17.446 17.446 0 0 1-5.024 2.448 7.172 7.172 0 0 0-7.965-1.993 7.172 7.172 0 0 0-4.612 6.793v1.6a17.058 17.058 0 0 1-14.4-7.248s-6.4 14.4 8 20.8a18.625 18.625 0 0 1-11.2 3.2c14.4 8 32 0 32-18.4a7.131 7.131 0 0 0-.128-1.328 12.354 12.354 0 0 0 3.328-5.872z"/>
    </symbol>
    <symbol id="icon-mobile-screen" viewBox="0 0 21 32">
      <path d="M16.935 2.286H3.636c-1.377 0-2.494 1.152-2.494 2.571v22.286c0 1.42 1.117 2.571 2.494 2.571h13.299c1.377 0 2.494-1.152 2.494-2.571V4.857c0-1.42-1.117-2.571-2.494-2.571zm-4.156 23.952c0 .52-.374.905-.831.905H8.577c-.41 0-.784-.386-.784-.857s.374-.857.831-.857h3.325c.457 0 .831.386.831.809zm3.325-3.381H4.468V5.714h11.636v17.143z"/>
    </symbol>
  </defs>
</svg>
