<svg aria-hidden="true" style="position: absolute; width: 0; height: 0; overflow: hidden;" version="1.1" xmlns="http://www.w3.org/2000/svg" xmlns:xlink="http://www.w3.org/1999/xlink">
  <defs>
    <symbol id="icon-logo" viewBox="0 0 36 32">
      <path fill="#02bc6b" style="fill: var(--color1, #02bc6b)" d="M2.785 30.323c-1.532 0-2.785-1.241-2.785-2.757v-9.639h7.010v-0.011h4.213c1.086-0.028 2.005-0.965 2.005-2.068 0-1.13-0.947-2.068-2.089-2.068l-11.14 0.002v-2.759c0-1.516 1.253-2.757 2.785-2.757h8.355c2.117 0 3.927 0.744 5.403 2.233 1.504 1.461 2.256 3.253 2.256 5.349 0 2.068-0.724 3.86-2.2 5.321s-3.258 2.233-5.347 2.261h-5.681v4.136c0 1.516-1.253 2.757-2.785 2.757z"></path>
      <path fill="#02897a" style="fill: var(--color2, #02897a)" d="M22.309 5.067c3.077 2.959 4.627 6.644 4.627 10.832 0 4.118-1.486 7.8-4.515 10.768l-4.301-4.006c1.884-1.846 2.809-4.068 2.809-6.761 0-2.714-0.953-4.933-2.882-6.788l4.262-4.044z"></path>
      <path fill="#035b81" style="fill: var(--color3, #035b81)" d="M28.894 0c4.432 4.38 6.662 9.812 6.662 16.046 0 6.136-2.14 11.564-6.499 15.954l-4.151-4.015c3.247-3.27 4.838-7.236 4.838-11.939 0-4.75-1.645-8.713-4.962-11.992l4.113-4.053z"></path>
      <path fill="#028e37" style="fill: var(--color4, #028e37)" d="M0 23.454h5.57v4.113c0 1.516-1.253 2.757-2.785 2.757s-2.785-1.241-2.785-2.757v-4.113z"></path>
    </symbol>
    <symbol id="icon-menu" viewBox="0 0 20 20">
      <path d="M0 3h20v2h-20v-2zM0 9h20v2h-20v-2zM0 15h20v2h-20v-2z"></path>
    </symbol>
    <symbol id="icon-play" viewBox="0 0 27 32">
      <path d="M25.976 14.68c1.205 0.692 1.205 2.43 0 3.122l-22.46 12.892c-1.2 0.689-2.696-0.178-2.696-1.561v-25.783c0-1.384 1.496-2.25 2.696-1.561l22.46 12.891z"></path>
    </symbol>
    <symbol id="icon-clock" viewBox="0 0 31 32">
      <path fill="#f03e3d" style="fill: var(--color1, #f03e3d)" d="M11.922 0.607h7.529c6.584 0 11.922 5.337 11.922 11.922v7.529c0 6.584-5.337 11.922-11.922 11.922h-7.529c-6.584 0-11.922-5.337-11.922-11.922v-7.529c0-6.584 5.337-11.922 11.922-11.922z"></path>
      <path fill="#fff" style="fill: var(--color2, #fff)" d="M19.182 12.798h0.538c0.101 0 0.179-0.078 0.179-0.179v-0.359c0-0.101-0.078-0.179-0.179-0.179h-8.247c-0.101 0-0.179 0.078-0.179 0.179v0.359c0 0.101 0.078 0.179 0.179 0.179h0.538c0 2.073 0.992 3.574 2.090 4.303-1.098 0.728-2.090 2.23-2.090 4.302h-0.538c-0.101 0-0.179 0.078-0.179 0.179v0.359c0 0.101 0.078 0.179 0.179 0.179h8.247c0.101 0 0.179-0.078 0.179-0.179v-0.359c0-0.101-0.078-0.179-0.179-0.179h-0.538c0-2.073-0.992-3.574-2.090-4.303 1.098-0.728 2.090-2.23 2.090-4.303zM18.465 12.798c0 0.818-0.185 1.541-0.476 2.151h-4.784c-0.291-0.611-0.476-1.333-0.476-2.151h5.737zM18.146 19.61h-5.098c0.415-1.081 1.16-1.849 1.905-2.151h1.288c0.745 0.303 1.49 1.070 1.905 2.151z"></path>
    </symbol>
    <symbol id="icon-heart" viewBox="0 0 31 32">
      <path fill="#740a76" style="fill: var(--color3, #740a76)" d="M11.922 0.607h7.529c6.584 0 11.922 5.337 11.922 11.922v7.529c0 6.584-5.337 11.922-11.922 11.922h-7.529c-6.584 0-11.922-5.337-11.922-11.922v-7.529c0-6.584 5.337-11.922 11.922-11.922z"></path>
      <path fill="#fff" style="fill: var(--color2, #fff)" d="M15.686 21.403c0.090 0 0.179-0.034 0.247-0.101l3.49-3.361c0.050-0.050 1.283-1.176 1.283-2.521 0-1.641-1.003-2.622-2.678-2.622-0.98 0-1.899 0.773-2.342 1.21-0.443-0.437-1.361-1.21-2.342-1.21-1.675 0-2.678 0.98-2.678 2.622 0 1.345 1.232 2.471 1.277 2.51l3.496 3.373c0.067 0.067 0.157 0.101 0.247 0.101z"></path>
    </symbol>
    <symbol id="icon-design" viewBox="0 0 31 32">
      <path fill="#4d8dff" style="fill: var(--color4, #4d8dff)" d="M11.922 0.607h7.529c6.584 0 11.922 5.337 11.922 11.922v7.529c0 6.584-5.337 11.922-11.922 11.922h-7.529c-6.584 0-11.922-5.337-11.922-11.922v-7.529c0-6.584 5.337-11.922 11.922-11.922z"></path>
      <path fill="#fff" style="fill: var(--color2, #fff)" d="M15.989 16.069l0.734 0.342 1.092-0.325v-0.762c0-1.294-1.092-2.331-2.398-2.331-1.3 0-2.398 1.031-2.398 2.314v3.473c0 0.319-0.258 0.571-0.571 0.571s-0.571-0.252-0.571-0.571v-1.468h-1.838c0 1.473 0 1.49 0 1.49 0 1.328 1.076 2.403 2.403 2.403 1.317 0 2.403-1.059 2.403-2.37v-3.429c0-0.314 0.258-0.571 0.571-0.571s0.571 0.258 0.571 0.571v0.661zM18.958 17.313v1.541c0 0.314-0.258 0.566-0.571 0.566s-0.571-0.252-0.571-0.566v-1.513l-1.092 0.325-0.734-0.342v1.501c0 1.317 1.081 2.381 2.403 2.381 1.328 0 2.403-1.076 2.403-2.403 0 0 0-0.017 0-1.49h-1.838z"></path>
    </symbol>
    <symbol id="icon-cursor" viewBox="0 0 32 32">
      <path fill="#02897a" style="fill: var(--color5, #02897a)" d="M11.922 0.607h7.529c6.584 0 11.922 5.337 11.922 11.922v7.529c0 6.584-5.337 11.922-11.922 11.922h-7.529c-6.584 0-11.922-5.337-11.922-11.922v-7.529c0-6.584 5.337-11.922 11.922-11.922z"></path>
      <path fill="#fff" style="fill: var(--color2, #fff)" d="M18.269 17.296l-5.737-5.737c-0.067-0.073-0.157-0.106-0.252-0.106-0.045 0-0.095 0.011-0.134 0.028-0.134 0.056-0.224 0.185-0.224 0.331v8.426c0 0.146 0.090 0.274 0.224 0.331 0.039 0.017 0.090 0.028 0.134 0.028 0.095 0 0.185-0.039 0.252-0.106l1.748-1.748 1.070 2.532c0.078 0.179 0.286 0.269 0.471 0.19l0.992-0.42c0.179-0.078 0.269-0.286 0.191-0.471l-1.126-2.667h2.14c0.146 0 0.274-0.090 0.331-0.224 0.056-0.129 0.028-0.286-0.078-0.387z"></path>
    </symbol>
    <symbol id="icon-blue-checked" viewBox="0 0 31 32">
      <path fill="#4d8dff" style="fill: var(--color1, #4d8dff)" d="M12.315 1.82h6.482c6.085 0 11.018 4.933 11.018 11.018v6.481c0 6.085-4.933 11.018-11.018 11.018h-6.482c-6.085 0-11.018-4.933-11.018-11.018v-6.482c0-6.085 4.933-11.018 11.018-11.018z"></path>
      <path fill="none" stroke="#fff" style="stroke: var(--color2, #fff)" stroke-linejoin="miter" stroke-linecap="butt" stroke-miterlimit="4" stroke-width="2.5926" d="M12.315 1.82h6.482c6.085 0 11.018 4.933 11.018 11.018v6.481c0 6.085-4.933 11.018-11.018 11.018h-6.482c-6.085 0-11.018-4.933-11.018-11.018v-6.482c0-6.085 4.933-11.018 11.018-11.018z"></path>
      <path fill="none" stroke="#4d8dff" style="stroke: var(--color1, #4d8dff)" stroke-linejoin="miter" stroke-linecap="butt" stroke-miterlimit="4" stroke-width="2.5926" d="M12.315 1.82h6.482c6.085 0 11.018 4.933 11.018 11.018v6.481c0 6.085-4.933 11.018-11.018 11.018h-6.482c-6.085 0-11.018-4.933-11.018-11.018v-6.482c0-6.085 4.933-11.018 11.018-11.018z"></path>
      <path fill="#fff" style="fill: var(--color2, #fff)" d="M22.903 11.403c-0.278-0.284-0.728-0.284-1.006 0l-8.52 8.701-3.275-3.344c-0.278-0.284-0.728-0.284-1.006 0s-0.278 0.743 0 1.027l3.778 3.858c0.278 0.284 0.728 0.283 1.006 0l9.022-9.214c0.278-0.284 0.278-0.743 0-1.027z"></path>
    </symbol>
    <symbol id="icon-red-checked" viewBox="0 0 31 32">
      <path fill="#f03e3d" style="fill: var(--color3, #f03e3d)" d="M12.315 1.82h6.482c6.085 0 11.018 4.933 11.018 11.018v6.481c0 6.085-4.933 11.018-11.018 11.018h-6.482c-6.085 0-11.018-4.933-11.018-11.018v-6.482c0-6.085 4.933-11.018 11.018-11.018z"></path>
      <path fill="none" stroke="#fff" style="stroke: var(--color2, #fff)" stroke-linejoin="miter" stroke-linecap="butt" stroke-miterlimit="4" stroke-width="2.5926" d="M12.315 1.82h6.482c6.085 0 11.018 4.933 11.018 11.018v6.481c0 6.085-4.933 11.018-11.018 11.018h-6.482c-6.085 0-11.018-4.933-11.018-11.018v-6.482c0-6.085 4.933-11.018 11.018-11.018z"></path>
      <path fill="none" stroke="#f03e3d" style="stroke: var(--color3, #f03e3d)" stroke-linejoin="miter" stroke-linecap="butt" stroke-miterlimit="4" stroke-width="2.5926" d="M12.315 1.82h6.482c6.085 0 11.018 4.933 11.018 11.018v6.481c0 6.085-4.933 11.018-11.018 11.018h-6.482c-6.085 0-11.018-4.933-11.018-11.018v-6.482c0-6.085 4.933-11.018 11.018-11.018z"></path>
      <path fill="#fff" style="fill: var(--color2, #fff)" d="M22.903 11.403c-0.278-0.284-0.728-0.284-1.006 0l-8.52 8.701-3.275-3.344c-0.278-0.284-0.728-0.284-1.006 0s-0.278 0.743 0 1.027l3.778 3.858c0.278 0.284 0.728 0.283 1.006 0l9.022-9.214c0.278-0.284 0.278-0.743 0-1.027z"></path>
    </symbol>
    <symbol id="icon-orange-checked" viewBox="0 0 31 32">
      <path fill="#f90" style="fill: var(--color4, #f90)" d="M12.315 1.612h6.482c6.085 0 11.018 4.933 11.018 11.018v6.482c0 6.085-4.933 11.018-11.018 11.018h-6.482c-6.085 0-11.018-4.933-11.018-11.018v-6.482c0-6.085 4.933-11.018 11.018-11.018z"></path>
      <path fill="none" stroke="#fff" style="stroke: var(--color2, #fff)" stroke-linejoin="miter" stroke-linecap="butt" stroke-miterlimit="4" stroke-width="2.5926" d="M12.315 1.612h6.482c6.085 0 11.018 4.933 11.018 11.018v6.482c0 6.085-4.933 11.018-11.018 11.018h-6.482c-6.085 0-11.018-4.933-11.018-11.018v-6.482c0-6.085 4.933-11.018 11.018-11.018z"></path>
      <path fill="none" stroke="#f90" style="stroke: var(--color4, #f90)" stroke-linejoin="miter" stroke-linecap="butt" stroke-miterlimit="4" stroke-width="2.5926" d="M12.315 1.612h6.482c6.085 0 11.018 4.933 11.018 11.018v6.482c0 6.085-4.933 11.018-11.018 11.018h-6.482c-6.085 0-11.018-4.933-11.018-11.018v-6.482c0-6.085 4.933-11.018 11.018-11.018z"></path>
      <path fill="#fff" style="fill: var(--color2, #fff)" d="M22.903 11.195c-0.278-0.284-0.728-0.284-1.006 0l-8.52 8.701-3.275-3.344c-0.278-0.284-0.728-0.284-1.006 0s-0.278 0.743 0 1.027l3.778 3.858c0.278 0.284 0.728 0.283 1.006 0l9.022-9.214c0.278-0.284 0.278-0.743 0-1.027z"></path>
    </symbol>
    <symbol id="icon-drk-mode-btn" viewBox="0 0 32 32">
      <path fill="#f3f3f3" style="fill: var(--color1, #f3f3f3)" d="M16 0c8.837 0 16 7.163 16 16s-7.163 16-16 16c-8.837 0-16-7.163-16-16s7.163-16 16-16z"></path>
      <path fill="#02897a" style="fill: var(--color2, #02897a)" d="M16 26c5.514 0 10-4.486 10-10s-4.486-10-10-10c-5.514 0-10 4.486-10 10s4.486 10 10 10zM16 8c4.411 0 8 3.589 8 8s-3.589 8-8 8c-4.411 0-8-3.589-8-8s3.589-8 8-8z"></path>
      <path fill="#02897a" style="fill: var(--color2, #02897a)" d="M23 16c0-3.866-3.135-7-7-7v14c3.865 0 7-3.134 7-7z"></path>
    </symbol>
    <symbol id="icon-review-stars" viewBox="0 0 180 32">
      <path fill="#f3cd03" style="fill: var(--color1, #f3cd03)" d="M30.814 11.093c-0.097-0.286-0.276-0.537-0.514-0.723s-0.526-0.297-0.827-0.321l-8.807-0.7-3.811-8.436c-0.121-0.272-0.319-0.502-0.568-0.664s-0.541-0.248-0.838-0.248c-0.298-0-0.589 0.086-0.839 0.248s-0.447 0.392-0.569 0.664l-3.811 8.438-8.807 0.7c-0.296 0.023-0.579 0.132-0.815 0.312s-0.415 0.424-0.516 0.703c-0.101 0.279-0.119 0.581-0.053 0.871s0.215 0.553 0.427 0.761l6.508 6.345-2.302 9.967c-0.070 0.302-0.048 0.617 0.064 0.906s0.308 0.537 0.563 0.713c0.255 0.176 0.557 0.271 0.866 0.274s0.613-0.088 0.87-0.261l8.412-5.608 8.412 5.608c0.263 0.175 0.573 0.265 0.889 0.258s0.622-0.11 0.877-0.296c0.255-0.186 0.447-0.446 0.55-0.744s0.113-0.621 0.027-0.925l-2.825-9.887 7.007-6.306c0.459-0.414 0.627-1.060 0.429-1.645z"></path>
      <path fill="#f3cd03" style="fill: var(--color1, #f3cd03)" d="M67.891 11.093c-0.097-0.286-0.276-0.537-0.514-0.723s-0.526-0.297-0.827-0.321l-8.807-0.7-3.811-8.436c-0.121-0.272-0.319-0.502-0.568-0.664s-0.541-0.248-0.838-0.248c-0.298-0-0.589 0.086-0.839 0.248s-0.447 0.392-0.569 0.664l-3.811 8.438-8.807 0.7c-0.296 0.023-0.579 0.132-0.815 0.312s-0.415 0.424-0.516 0.703c-0.101 0.279-0.119 0.581-0.053 0.871s0.215 0.553 0.427 0.761l6.508 6.345-2.302 9.967c-0.070 0.302-0.047 0.617 0.064 0.906s0.308 0.537 0.563 0.713c0.255 0.176 0.557 0.271 0.866 0.274s0.613-0.088 0.87-0.261l8.411-5.608 8.412 5.608c0.263 0.175 0.573 0.265 0.889 0.258s0.622-0.11 0.877-0.296c0.255-0.186 0.447-0.446 0.551-0.744s0.112-0.621 0.027-0.925l-2.825-9.887 7.007-6.306c0.459-0.414 0.627-1.060 0.429-1.645z"></path>
      <path fill="#f3cd03" style="fill: var(--color1, #f3cd03)" d="M104.962 11.093c-0.097-0.286-0.276-0.537-0.514-0.723s-0.526-0.297-0.827-0.321l-8.807-0.7-3.811-8.436c-0.121-0.272-0.319-0.502-0.568-0.664s-0.541-0.248-0.838-0.248-0.589 0.086-0.839 0.248c-0.25 0.162-0.448 0.392-0.569 0.664l-3.811 8.438-8.807 0.7c-0.296 0.023-0.579 0.132-0.815 0.312s-0.415 0.424-0.516 0.703c-0.101 0.279-0.119 0.581-0.053 0.871s0.215 0.553 0.427 0.761l6.508 6.345-2.302 9.967c-0.070 0.302-0.047 0.617 0.064 0.906s0.308 0.537 0.563 0.713c0.255 0.176 0.557 0.271 0.866 0.274s0.613-0.088 0.87-0.261l8.412-5.608 8.411 5.608c0.263 0.175 0.573 0.265 0.889 0.258s0.622-0.11 0.877-0.296c0.255-0.186 0.447-0.446 0.55-0.744s0.112-0.621 0.027-0.925l-2.826-9.887 7.007-6.306c0.459-0.414 0.627-1.060 0.429-1.645z"></path>
      <path fill="#f3cd03" style="fill: var(--color1, #f3cd03)" d="M142.041 11.093c-0.097-0.286-0.276-0.537-0.514-0.723s-0.526-0.297-0.827-0.321l-8.807-0.7-3.811-8.436c-0.121-0.272-0.319-0.502-0.568-0.664s-0.541-0.248-0.838-0.248c-0.298-0-0.589 0.086-0.839 0.248s-0.448 0.392-0.569 0.664l-3.811 8.438-8.807 0.7c-0.296 0.023-0.579 0.132-0.815 0.312s-0.415 0.424-0.516 0.703-0.119 0.581-0.053 0.871c0.066 0.289 0.215 0.553 0.427 0.761l6.508 6.345-2.302 9.967c-0.070 0.302-0.047 0.617 0.064 0.906s0.308 0.537 0.563 0.713c0.255 0.176 0.557 0.271 0.866 0.274s0.613-0.088 0.87-0.261l8.412-5.608 8.411 5.608c0.263 0.175 0.573 0.265 0.889 0.258s0.622-0.11 0.877-0.296c0.255-0.186 0.447-0.446 0.551-0.744s0.112-0.621 0.027-0.925l-2.826-9.887 7.007-6.306c0.459-0.414 0.627-1.060 0.429-1.645z"></path>
      <path fill="#f3cd03" style="fill: var(--color1, #f3cd03)" d="M155.28 19.039l-2.302 9.967c-0.071 0.302-0.050 0.618 0.061 0.908s0.307 0.539 0.562 0.715c0.255 0.176 0.557 0.272 0.868 0.274s0.614-0.090 0.871-0.263l8.412-5.608 8.411 5.608c0.263 0.175 0.574 0.265 0.889 0.258 0.317-0.007 0.621-0.11 0.877-0.297 0.254-0.186 0.446-0.446 0.551-0.744 0.103-0.299 0.113-0.621 0.027-0.925l-2.826-9.887 7.008-6.306c0.224-0.202 0.384-0.466 0.46-0.758 0.077-0.292 0.066-0.6-0.032-0.886-0.096-0.286-0.275-0.537-0.514-0.723-0.237-0.186-0.525-0.297-0.827-0.321l-8.807-0.701-3.811-8.436c-0.122-0.272-0.319-0.502-0.569-0.664s-0.541-0.248-0.839-0.248-0.589 0.086-0.839 0.248c-0.25 0.162-0.447 0.393-0.569 0.664l-3.811 8.436-8.807 0.7c-0.296 0.023-0.579 0.132-0.815 0.312s-0.415 0.424-0.516 0.703-0.119 0.581-0.053 0.871c0.066 0.289 0.215 0.553 0.427 0.761l6.51 6.345zM159.688 12.356c0.276-0.022 0.541-0.117 0.767-0.277s0.405-0.376 0.519-0.629l2.779-6.15 2.779 6.15c0.113 0.252 0.292 0.47 0.519 0.629s0.491 0.255 0.767 0.277l6.136 0.487-5.053 4.548c-0.438 0.395-0.613 1.004-0.453 1.573l1.937 6.774-5.772-3.848c-0.253-0.17-0.552-0.261-0.857-0.261s-0.603 0.091-0.857 0.261l-6.031 4.021 1.622-7.023c0.059-0.258 0.051-0.527-0.023-0.782s-0.214-0.485-0.403-0.67l-4.693-4.576 6.318-0.504z"></path>
    </symbol>
    <symbol id="icon-facebook" viewBox="0 0 32 32">
      <path stroke-linejoin="round" stroke-linecap="round" stroke-miterlimit="4" stroke-width="2.6667" d="M24 2.667h-4c-1.768 0-3.464 0.702-4.714 1.953s-1.953 2.946-1.953 4.714v4h-4v5.333h4v10.667h5.333v-10.667h4l1.333-5.333h-5.333v-4c0-0.354 0.141-0.693 0.391-0.943s0.589-0.391 0.943-0.391h4v-5.333z"></path>
    </symbol>
    <symbol id="icon-instagram" viewBox="0 0 31 32">
      <path stroke-linejoin="round" stroke-linecap="round" stroke-miterlimit="4" stroke-width="2.56" d="M21.76 2.58h-12.8c-3.535 0-6.4 2.865-6.4 6.4v12.8c0 3.535 2.865 6.4 6.4 6.4h12.8c3.535 0 6.4-2.865 6.4-6.4v-12.8c0-3.535-2.865-6.4-6.4-6.4z"></path>
      <path stroke-linejoin="round" stroke-linecap="round" stroke-miterlimit="4" stroke-width="2.56" d="M20.48 14.574c0.158 1.065-0.024 2.153-0.52 3.109s-1.281 1.731-2.243 2.215c-0.962 0.484-2.052 0.653-3.115 0.482s-2.045-0.673-2.807-1.435-1.264-1.744-1.435-2.807c-0.171-1.063-0.003-2.153 0.482-3.115s1.259-1.747 2.215-2.243c0.956-0.496 2.044-0.678 3.109-0.52 1.087 0.161 2.093 0.667 2.869 1.444s1.283 1.783 1.444 2.869z"></path>
      <path stroke-linejoin="round" stroke-linecap="round" stroke-miterlimit="4" stroke-width="2.56" d="M22.4 8.34h0.013"></path>
    </symbol>
    <symbol id="icon-twitter" viewBox="0 0 38 32">
      <path stroke-linejoin="round" stroke-linecap="round" stroke-miterlimit="4" stroke-width="3.2" d="M36.8 1.616c-1.532 1.081-3.229 1.907-5.024 2.448-0.964-1.108-2.244-1.893-3.669-2.25s-2.924-0.267-4.296 0.257c-1.372 0.524-2.55 1.456-3.375 2.671s-1.256 2.654-1.237 4.122v1.6c-2.812 0.073-5.598-0.551-8.11-1.815s-4.673-3.131-6.29-5.433c0 0-6.4 14.4 8 20.8-3.295 2.237-7.221 3.358-11.2 3.2 14.4 8 32 0 32-18.4-0.001-0.446-0.044-0.89-0.128-1.328 1.633-1.61 2.785-3.644 3.328-5.872v0z"></path>
    </symbol>
    <symbol id="icon-mobile-screen" viewBox="0 0 21 32">
      <path d="M16.935 2.286h-13.299c-1.377 0-2.494 1.152-2.494 2.571v22.286c0 1.42 1.117 2.571 2.494 2.571h13.299c1.377 0 2.494-1.152 2.494-2.571v-22.286c0-1.42-1.117-2.571-2.494-2.571zM12.779 26.238c0 0.52-0.374 0.905-0.831 0.905h-3.371c-0.41 0-0.784-0.386-0.784-0.857s0.374-0.857 0.831-0.857h3.325c0.457 0 0.831 0.386 0.831 0.809zM16.104 22.857h-11.636v-17.143h11.636v17.143z"></path>
    </symbol>
  </defs>
</svg>