<svg aria-hidden="true" style="position: absolute; width: 0; height: 0; overflow: hidden;" version="1.1" xmlns="http://www.w3.org/2000/svg" xmlns:xlink="http://www.w3.org/1999/xlink">
<defs>
<symbol id="icon-logo" viewBox="0 0 36 32">
<path fill="#02bc6b" style="fill: var(--color1, #02bc6b)" d="M2.785 30.323c-1.532 0-2.785-1.241-2.785-2.757v-9.639h7.010v-0.011h4.213c1.086-0.028 2.005-0.965 2.005-2.068 0-1.13-0.947-2.068-2.089-2.068l-11.14 0.002v-2.759c0-1.516 1.253-2.757 2.785-2.757h8.355c2.117 0 3.927 0.744 5.403 2.233 1.504 1.461 2.256 3.253 2.256 5.349 0 2.068-0.724 3.86-2.2 5.321s-3.258 2.233-5.347 2.261h-5.681v4.136c0 1.516-1.253 2.757-2.785 2.757z"></path>
<path fill="#02897a" style="fill: var(--color2, #02897a)" d="M22.309 5.067c3.077 2.959 4.627 6.644 4.627 10.832 0 4.118-1.486 7.8-4.515 10.768l-4.301-4.006c1.884-1.846 2.809-4.068 2.809-6.761 0-2.714-0.953-4.933-2.882-6.788l4.262-4.044z"></path>
<path fill="#035b81" style="fill: var(--color3, #035b81)" d="M28.894 0c4.432 4.38 6.662 9.812 6.662 16.046 0 6.136-2.14 11.564-6.499 15.954l-4.151-4.015c3.247-3.27 4.838-7.236 4.838-11.939 0-4.75-1.645-8.713-4.962-11.992l4.113-4.053z"></path>
<path fill="#028e37" style="fill: var(--color4, #028e37)" d="M0 23.454h5.57v4.113c0 1.516-1.253 2.757-2.785 2.757s-2.785-1.241-2.785-2.757v-4.113z"></path>
</symbol>
<symbol id="icon-menu" viewBox="0 0 20 20">
<path d="M0 3h20v2h-20v-2zM0 9h20v2h-20v-2zM0 15h20v2h-20v-2z"></path>
</symbol>
<symbol id="icon-play" viewBox="0 0 27 32">
<path d="M25.976 14.68c1.205 0.692 1.205 2.43 0 3.122l-22.46 12.892c-1.2 0.689-2.696-0.178-2.696-1.561v-25.783c0-1.384 1.496-2.25 2.696-1.561l22.46 12.891z"></path>
</symbol>
<symbol id="icon-clock" viewBox="0 0 31 32">
<path fill="#f03e3d" style="fill: var(--color1, #f03e3d)" d="M11.922 0.607h7.529c6.584 0 11.922 5.337 11.922 11.922v7.529c0 6.584-5.337 11.922-11.922 11.922h-7.529c-6.584 0-11.922-5.337-11.922-11.922v-7.529c0-6.584 5.337-11.922 11.922-11.922z"></path>
<path fill="#fff" style="fill: var(--color2, #fff)" d="M19.182 12.798h0.538c0.101 0 0.179-0.078 0.179-0.179v-0.359c0-0.101-0.078-0.179-0.179-0.179h-8.247c-0.101 0-0.179 0.078-0.179 0.179v0.359c0 0.101 0.078 0.179 0.179 0.179h0.538c0 2.073 0.992 3.574 2.090 4.303-1.098 0.728-2.090 2.23-2.090 4.302h-0.538c-0.101 0-0.179 0.078-0.179 0.179v0.359c0 0.101 0.078 0.179 0.179 0.179h8.247c0.101 0 0.179-0.078 0.179-0.179v-0.359c0-0.101-0.078-0.179-0.179-0.179h-0.538c0-2.073-0.992-3.574-2.090-4.303 1.098-0.728 2.090-2.23 2.090-4.303zM18.465 12.798c0 0.818-0.185 1.541-0.476 2.151h-4.784c-0.291-0.611-0.476-1.333-0.476-2.151h5.737zM18.146 19.61h-5.098c0.415-1.081 1.16-1.849 1.905-2.151h1.288c0.745 0.303 1.49 1.070 1.905 2.151z"></path>
</symbol>
<symbol id="icon-heart" viewBox="0 0 31 32">
<path fill="#740a76" style="fill: var(--color3, #740a76)" d="M11.922 0.607h7.529c6.584 0 11.922 5.337 11.922 11.922v7.529c0 6.584-5.337 11.922-11.922 11.922h-7.529c-6.584 0-11.922-5.337-11.922-11.922v-7.529c0-6.584 5.337-11.922 11.922-11.922z"></path>
<path fill="#fff" style="fill: var(--color2, #fff)" d="M15.686 21.403c0.090 0 0.179-0.034 0.247-0.101l3.49-3.361c0.050-0.050 1.283-1.176 1.283-2.521 0-1.641-1.003-2.622-2.678-2.622-0.98 0-1.899 0.773-2.342 1.21-0.443-0.437-1.361-1.21-2.342-1.21-1.675 0-2.678 0.98-2.678 2.622 0 1.345 1.232 2.471 1.277 2.51l3.496 3.373c0.067 0.067 0.157 0.101 0.247 0.101z"></path>
</symbol>
<symbol id="icon-design" viewBox="0 0 31 32">
<path fill="#4d8dff" style="fill: var(--color4, #4d8dff)" d="M11.922 0.607h7.529c6.584 0 11.922 5.337 11.922 11.922v7.529c0 6.584-5.337 11.922-11.922 11.922h-7.529c-6.584 0-11.922-5.337-11.922-11.922v-7.529c0-6.584 5.337-11.922 11.922-11.922z"></path>
<path fill="#fff" style="fill: var(--color2, #fff)" d="M15.989 16.069l0.734 0.342 1.092-0.325v-0.762c0-1.294-1.092-2.331-2.398-2.331-1.3 0-2.398 1.031-2.398 2.314v3.473c0 0.319-0.258 0.571-0.571 0.571s-0.571-0.252-0.571-0.571v-1.468h-1.838c0 1.473 0 1.49 0 1.49 0 1.328 1.076 2.403 2.403 2.403 1.317 0 2.403-1.059 2.403-2.37v-3.429c0-0.314 0.258-0.571 0.571-0.571s0.571 0.258 0.571 0.571v0.661zM18.958 17.313v1.541c0 0.314-0.258 0.566-0.571 0.566s-0.571-0.252-0.571-0.566v-1.513l-1.092 0.325-0.734-0.342v1.501c0 1.317 1.081 2.381 2.403 2.381 1.328 0 2.403-1.076 2.403-2.403 0 0 0-0.017 0-1.49h-1.838z"></path>
</symbol>
<symbol id="icon-cursor" viewBox="0 0 32 32">
<path fill="#02897a" style="fill: var(--color5, #02897a)" d="M11.922 0.607h7.529c6.584 0 11.922 5.337 11.922 11.922v7.529c0 6.584-5.337 11.922-11.922 11.922h-7.529c-6.584 0-11.922-5.337-11.922-11.922v-7.529c0-6.584 5.337-11.922 11.922-11.922z"></path>
<path fill="#fff" style="fill: var(--color2, #fff)" d="M18.269 17.296l-5.737-5.737c-0.067-0.073-0.157-0.106-0.252-0.106-0.045 0-0.095 0.011-0.134 0.028-0.134 0.056-0.224 0.185-0.224 0.331v8.426c0 0.146 0.090 0.274 0.224 0.331 0.039 0.017 0.090 0.028 0.134 0.028 0.095 0 0.185-0.039 0.252-0.106l1.748-1.748 1.070 2.532c0.078 0.179 0.286 0.269 0.471 0.19l0.992-0.42c0.179-0.078 0.269-0.286 0.191-0.471l-1.126-2.667h2.14c0.146 0 0.274-0.090 0.331-0.224 0.056-0.129 0.028-0.286-0.078-0.387z"></path>
</symbol>
<symbol id="icon-blue-checked" viewBox="0 0 31 32">
<path fill="#4d8dff" style="fill: var(--color1, #4d8dff)" d="M12.315 1.82h6.482c6.085 0 11.018 4.933 11.018 11.018v6.481c0 6.085-4.933 11.018-11.018 11.018h-6.482c-6.085 0-11.018-4.933-11.018-11.018v-6.482c0-6.085 4.933-11.018 11.018-11.018z"></path>
<path fill="none" stroke="#fff" style="stroke: var(--color2, #fff)" stroke-linejoin="miter" stroke-linecap="butt" stroke-miterlimit="4" stroke-width="2.5926" d="M12.315 1.82h6.482c6.085 0 11.018 4.933 11.018 11.018v6.481c0 6.085-4.933 11.018-11.018 11.018h-6.482c-6.085 0-11.018-4.933-11.018-11.018v-6.482c0-6.085 4.933-11.018 11.018-11.018z"></path>
<path fill="none" stroke="#4d8dff" style="stroke: var(--color1, #4d8dff)" stroke-linejoin="miter" stroke-linecap="butt" stroke-miterlimit="4" stroke-width="2.5926" d="M12.315 1.82h6.482c6.085 0 11.018 4.933 11.018 11.018v6.481c0 6.085-4.933 11.018-11.018 11.018h-6.482c-6.085 0-11.018-4.933-11.018-11.018v-6.482c0-6.085 4.933-11.018 11.018-11.018z"></path>
<path fill="#fff" style="fill: var(--color2, #fff)" d="M22.903 11.403c-0.278-0.284-0.728-0.284-1.006 0l-8.52 8.701-3.275-3.344c-0.278-0.284-0.728-0.284-1.006 0s-0.278 0.743 0 1.027l3.778 3.858c0.278 0.284 0.728 0.283 1.006 0l9.022-9.214c0.278-0.284 0.278-0.743 0-1.027z"></path>
</symbol>
<symbol id="icon-red-checked" viewBox="0 0 31 32">
<path fill="#f03e3d" style="fill: var(--color3, #f03e3d)" d="M12.315 1.82h6.482c6.085 0 11.018 4.933 11.018 11.018v6.481c0 6.085-4.933 11.018-11.018 11.018h-6.482c-6.085 0-11.018-4.933-11.018-11.018v-6.482c0-6.085 4.933-11.018 11.018-11.018z"></path>
<path fill="none" stroke="#fff" style="stroke: var(--color2, #fff)" stroke-linejoin="miter" stroke-linecap="butt" stroke-miterlimit="4" stroke-width="2.5926" d="M12.315 1.82h6.482c6.085 0 11.018 4.933 11.018 11.018v6.481c0 6.085-4.933 11.018-11.018 11.018h-6.482c-6.085 0-11.018-4.933-11.018-11.018v-6.482c0-6.085 4.933-11.018 11.018-11.018z"></path>
<path fill="none" stroke="#f03e3d" style="stroke: var(--color3, #f03e3d)" stroke-linejoin="miter" stroke-linecap="butt" stroke-miterlimit="4" stroke-width="2.5926" d="M12.315 1.82h6.482c6.085 0 11.018 4.933 11.018 11.018v6.481c0 6.085-4.933 11.018-11.018 11.018h-6.482c-6.085 0-11.018-4.933-11.018-11.018v-6.482c0-6.085 4.933-11.018 11.018-11.018z"></path>
<path fill="#fff" style="fill: var(--color2, #fff)" d="M22.903 11.403c-0.278-0.284-0.728-0.284-1.006 0l-8.52 8.701-3.275-3.344c-0.278-0.284-0.728-0.284-1.006 0s-0.278 0.743 0 1.027l3.778 3.858c0.278 0.284 0.728 0.283 1.006 0l9.022-9.214c0.278-0.284 0.278-0.743 0-1.027z"></path>
</symbol>
<symbol id="icon-orange-checked" viewBox="0 0 31 32">
<path fill="#f90" style="fill: var(--color4, #f90)" d="M12.315 1.612h6.482c6.085 0 11.018 4.933 11.018 11.018v6.482c0 6.085-4.933 11.018-11.018 11.018h-6.482c-6.085 0-11.018-4.933-11.018-11.018v-6.482c0-6.085 4.933-11.018 11.018-11.018z"></path>
<path fill="none" stroke="#fff" style="stroke: var(--color2, #fff)" stroke-linejoin="miter" stroke-linecap="butt" stroke-miterlimit="4" stroke-width="2.5926" d="M12.315 1.612h6.482c6.085 0 11.018 4.933 11.018 11.018v6.482c0 6.085-4.933 11.018-11.018 11.018h-6.482c-6.085 0-11.018-4.933-11.018-11.018v-6.482c0-6.085 4.933-11.018 11.018-11.018z"></path>
<path fill="none" stroke="#f90" style="stroke: var(--color4, #f90)" stroke-linejoin="miter" stroke-linecap="butt" stroke-miterlimit="4" stroke-width="2.5926" d="M12.315 1.612h6.482c6.085 0 11.018 4.933 11.018 11.018v6.482c0 6.085-4.933 11.018-11.018 11.018h-6.482c-6.085 0-11.018-4.933-11.018-11.018v-6.482c0-6.085 4.933-11.018 11.018-11.018z"></path>
<path fill="#fff" style="fill: var(--color2, #fff)" d="M22.903 11.195c-0.278-0.284-0.728-0.284-1.006 0l-8.52 8.701-3.275-3.344c-0.278-0.284-0.728-0.284-1.006 0s-0.278 0.743 0 1.027l3.778 3.858c0.278 0.284 0.728 0.283 1.006 0l9.022-9.214c0.278-0.284 0.278-0.743 0-1.027z"></path>
</symbol>
</defs>
</svg>
